<?xml version="1.0" encoding="UTF-8"?>
<svg width="60" height="60" viewBox="0 0 60 60" xmlns="http://www.w3.org/2000/svg">
    <!-- Background Circle with Gradient -->
    <defs>
        <linearGradient id="bgGradient" x1="0%" y1="0%" x2="100%" y2="100%">
            <stop offset="0%" style="stop-color:#2c3e50;stop-opacity:1"/>
            <stop offset="100%" style="stop-color:#3498db;stop-opacity:1"/>
        </linearGradient>
        <filter id="shadow" x="-20%" y="-20%" width="140%" height="140%">
            <feGaussianBlur in="SourceAlpha" stdDeviation="2"/>
            <feOffset dx="1" dy="1"/>
            <feComposite in2="SourceAlpha" operator="arithmetic" k2="-1" k3="1"/>
            <feColorMatrix type="matrix" values="0 0 0 0 0   0 0 0 0 0   0 0 0 0 0  0 0 0 0.3 0"/>
        </filter>
    </defs>

    <!-- Main Circle -->
    <circle cx="30" cy="30" r="28" fill="url(#bgGradient)" filter="url(#shadow)"/>
    
    <!-- Heart Shape -->
    <path d="M30 45C30 45 45 35 45 25C45 20 40 15 35 15C32 15 30 17 30 17C30 17 28 15 25 15C20 15 15 20 15 25C15 35 30 45 30 45Z" 
          fill="white" opacity="0.9"/>
    
    <!-- Child Silhouette -->
    <path d="M30 20C33 20 35 18 35 15C35 12 33 10 30 10C27 10 25 12 25 15C25 18 27 20 30 20Z" 
          fill="white" opacity="0.9"/>
    <path d="M25 20C25 20 20 25 20 30C20 35 25 40 30 40C35 40 40 35 40 30C40 25 35 20 35 20" 
          fill="white" opacity="0.9"/>
    
    <!-- Decorative Elements -->
    <circle cx="20" cy="20" r="2" fill="white" opacity="0.6"/>
    <circle cx="40" cy="20" r="2" fill="white" opacity="0.6"/>
    <circle cx="30" cy="35" r="2" fill="white" opacity="0.6"/>
    
    <!-- Animated Elements -->
    <circle cx="30" cy="30" r="25" fill="none" stroke="white" stroke-width="1" opacity="0.3">
        <animate attributeName="r" values="25;27;25" dur="3s" repeatCount="indefinite"/>
        <animate attributeName="opacity" values="0.3;0.5;0.3" dur="3s" repeatCount="indefinite"/>
    </circle>
</svg> 